# xmcd CD database file
#
# Track frame offsets:
#	150
#	24802
#	43485
#	60447
#	92877
#	111567
#	130985
#	147722
#	185067
#	215735
#
# Disc length: 3142 seconds
#
# Revision: 0
# Processed by: cddbd v1.5.2PL0 Copyright (c) Steve Scherf et al.
# Submitted via: CDex 1.70beta3
#
DISCID=a10c440a
DTITLE=Honda Takehiro - ふるさと
DYEAR=1900
DGENRE=Jazz
TTITLE0=赤とんぼ
TTITLE1=夕焼け小焼け
TTITLE2=七つの子
TTITLE3=月の砂漠
TTITLE4=赤い靴
TTITLE5=荒城の月
TTITLE6=浜辺の歌
TTITLE7=さくらさくら
TTITLE8=仰げば尊し ～ 父の歌 （宮古高校校歌）
TTITLE9=故郷
EXTD=
EXTT0=
EXTT1=
EXTT2=
EXTT3=
EXTT4=
EXTT5=
EXTT6=
EXTT7=
EXTT8=
EXTT9=
PLAYORDER=
